<svg id="Layer_1" xmlns="http://www.w3.org/2000/svg" viewBox="0 0 788.4 39.4">
  <style>
    .st0{fill:none;stroke:#19dcf5;stroke-width:2;}
  </style>
  <path id="path-17" class="st0" d="M0 17.5c18.5 0 18.5 4.5 37.1 4.5 18.5 0 18.5-4.5 37.1-4.5 13.1 0 17.1 1.5 24.5 3.5 7.1 1.9 12.6 3.3 21 3.6 8.9.3 14.6-2.3 21.6-7.8 2.2-1.8 4.8-3.1 7.3-3.1 7.6 0 7.6 11.9 15.2 11.9s7.6-11.9 15.2-11.9 7.6 11.9 15.2 11.9 7.6-11.9 15.2-11.9 10.1 13.9 22.6 13.6C245.2 27.1 243.2 8 254.7 8c10.9.4 8.9 23.4 17.8 23.4S281.4 8 290.3 8s8.9 23.4 17.8 23.4S317.1 8 326 8s8.9 23.4 17.8 23.4S352.7 8 361.6 8s12.5 26.6 21.3 27c14.2.6 13.5-33.2 26.7-33.2s15 35.8 24.5 35.8S444.3 6 454.1 6s9.8 27.4 19.5 27.4c9.8 0 9.8-27.4 19.5-27.4 9.8 0 9.8 27.4 19.5 27.4 9.8 0 9.8-27.4 19.5-27.4 9.8 0 9.8 27.4 19.5 27.4 9.8 0 11.6-27.4 19.5-27.4s8.2 21.4 16.5 21.4c8.2 0 8.2-15.4 16.5-15.4 8.2 0 8.2 15.4 16.5 15.4 8.2 0 8.2-15.4 16.5-15.4 8.2 0 8.2 15.4 16.5 15.4 8.2 0 8.2-15.4 16.5-15.4 8.2 0 8.2 15.4 16.5 15.4 8.2 0 8.4-13 19-13.2 11-.2 11.7 7 21.9 7s10.2-3 20.3-3c10.2 0 10.2 3 20.3 3s10.2-3 20.3-3"/>
</svg>
